<?xml version="1.0" encoding="utf-8"?>
<!-- Source: https://www.svgrepo.com/svg/278646/unicycle-clown -->
<svg version="1.1" id="Layer_1" xmlns="http://www.w3.org/2000/svg" xmlns:xlink="http://www.w3.org/1999/xlink" x="0px" y="0px"
	 viewBox="0 0 393.309 393.309" style="enable-background:new 0 0 393.309 393.309;" xml:space="preserve">
<circle style="fill:#6EB1E1;" cx="196.655" cy="196.655" r="196.655"/>
<path style="fill:#F1F3F7;" d="M280.566,159.871l-40.016-52.493l2.457-5.689c2.069-4.784-0.065-10.343-4.848-12.412l-41.503-18.101
	c-4.784-2.069-10.343,0.065-12.412,4.848l-2.586,5.883l-45.899,8.404c-4.978,0.84-9.05,4.461-10.537,9.244l-14.675,47.451
	c-2.263,7.111,1.745,14.675,8.857,16.937c1.293,0.388,2.715,0.646,4.008,0.646c5.818,0,11.119-3.685,12.929-9.503l12.283-39.564
	l19.911-3.685l-23.79,54.497c-2.069,4.784,0.065,10.343,4.848,12.412l41.503,18.101c3.685,1.616,7.887,0.646,10.537-2.069
	l21.075,16.356l-19.071,53.85c-2.521,7.046,1.164,14.739,8.21,17.261c1.552,0.517,3.103,0.776,4.59,0.776
	c5.56,0,10.796-3.491,12.671-8.986l22.432-63.03c1.939-5.495,0.129-11.636-4.461-15.192l-33.681-26.182l14.804-33.939l30.901,40.533
	c2.651,3.491,6.659,5.301,10.731,5.301c2.844,0,5.818-0.905,8.21-2.78C283.992,174.352,285.156,165.818,280.566,159.871z"/>
<path style="fill:#F0582F;" d="M194.327,209.713c-36.461,0-53.139-20.945-54.044-22.044c-3.426-4.396-2.65-10.796,1.875-14.222
	c4.396-3.426,10.731-2.65,14.158,1.745c0.84,1.099,18.295,21.527,59.669,11.442c5.495-1.293,10.925,2.004,12.218,7.434
	c1.293,5.43-2.004,10.925-7.434,12.218C211.006,208.679,202.214,209.713,194.327,209.713z"/>
<polygon style="fill:#896C5E;" points="252.962,304.42 197.947,304.42 236.865,265.568 234.473,263.176 195.556,302.028 
	195.556,247.143 192.194,247.143 192.194,302.028 153.277,263.176 150.885,265.568 189.867,304.42 134.853,304.42 134.853,307.846 
	189.867,307.846 150.885,346.699 153.277,349.091 192.194,310.238 192.194,365.253 195.556,365.253 195.556,310.238 
	234.473,349.091 236.865,346.699 197.947,307.846 252.962,307.846 "/>
<path style="fill:#393D47;" d="M193.875,235.766c-38.853,0-70.4,31.547-70.4,70.4s31.547,70.4,70.4,70.4s70.4-31.547,70.4-70.4
	S232.792,235.766,193.875,235.766z M193.875,356.331c-27.669,0-50.166-22.497-50.166-50.166S166.206,256,193.875,256
	s50.166,22.497,50.166,50.166S221.608,356.331,193.875,356.331z"/>
<circle style="fill:#896C5E;" cx="193.875" cy="306.166" r="14.222"/>
<g>
	<path style="fill:#F1F3F7;" d="M207.192,303.58l-4.073-21.01l0.065,0.065l-12.283-108.735h-8.857l-2.392-12.283
		c-1.422-7.37-8.469-12.154-15.838-10.667c-7.37,1.422-12.154,8.469-10.667,15.838l27.604,141.899
		c1.228,6.465,6.853,10.99,13.317,10.99c0.84,0,1.681-0.065,2.521-0.259C203.766,317.996,208.549,310.949,207.192,303.58z"/>
	<circle style="fill:#F1F3F7;" cx="224.259" cy="47.063" r="30.384"/>
</g>
</svg>
